<svg width="50" height="50" viewBox="0 0 50 50" fill="none" xmlns="http://www.w3.org/2000/svg">
<circle cx="25" cy="25" r="25" fill="#1B1F23"/>
<g clip-path="url(#clip0_10435_4750)">
<path d="M19.8602 28.929C21.387 27.2448 20.1655 24.4761 17.8698 24.4844C15.5742 24.4761 14.3526 27.2453 15.8796 28.929C14.2492 29.3771 13.0476 30.8716 13.0476 32.6424V33.6133C13.0476 33.8981 13.2785 34.1289 13.5632 34.1289H22.1765C22.4613 34.1289 22.6921 33.8981 22.6921 33.6133V32.6424C22.6921 30.8716 21.4905 29.3771 19.8602 28.929ZM17.8699 25.5156C18.7729 25.5156 19.5076 26.2503 19.5076 27.1534C19.4176 29.326 16.3218 29.3254 16.2322 27.1534C16.2322 26.2503 16.9669 25.5156 17.8699 25.5156ZM21.6609 33.0977H14.0789V32.6424C14.0789 31.0873 15.3439 29.8223 16.899 29.8223H18.8408C20.3958 29.8223 21.6609 31.0873 21.6609 32.6424V33.0977H21.6609Z" fill="#FFED92"/>
<path d="M34.1205 31.8001C35.6473 30.1159 34.4259 27.3472 32.1301 27.3555C29.8345 27.3472 28.6129 30.1164 30.1398 31.8001C28.5095 32.2482 27.3079 33.7427 27.3079 35.5135V36.4844C27.3079 36.7692 27.5387 37 27.8235 37H36.4368C36.7215 37 36.9524 36.7692 36.9524 36.4844V35.5135C36.9524 33.7427 35.7508 32.2482 34.1205 31.8001ZM32.1302 28.3867C33.0332 28.3867 33.7679 29.1214 33.7679 30.0245C33.6779 32.1971 30.5821 32.1965 30.4925 30.0245C30.4925 29.1214 31.2271 28.3867 32.1302 28.3867ZM35.9212 35.9688H28.3392V35.5135C28.3392 33.9584 29.6042 32.6934 31.1593 32.6934H33.1011C34.6561 32.6934 35.9212 33.9584 35.9212 35.5135V35.9688H35.9212Z" fill="#FFED92"/>
<path d="M27.8711 19.7736C27.2653 19.7878 27.1732 18.8567 27.7703 18.7522C28.4997 18.621 28.6121 19.7599 27.8711 19.7736Z" fill="#FFED92"/>
<path d="M29.9134 19.7736C29.3075 19.7877 29.2156 18.8567 29.8127 18.7522C30.542 18.6209 30.6543 19.7599 29.9134 19.7736Z" fill="#FFED92"/>
<path d="M25.8287 19.7737C25.0875 19.7597 25.2003 18.6209 25.9296 18.7523C26.5265 18.8569 26.4346 19.7879 25.8287 19.7737Z" fill="#FFED92"/>
<path d="M30.7422 15.8711H28.3475C28.0984 14.2475 26.6922 13 25 13H19.2578C17.3904 13 15.8711 14.5193 15.8711 16.3867V22.1289C15.8696 22.5829 16.4284 22.818 16.7513 22.4935L19.4714 19.7734H21.6523C21.87 21.3813 23.3701 22.6755 25.0001 22.6445L30.5286 22.6445L33.2487 25.3646C33.3966 25.5128 33.6198 25.5557 33.8106 25.4764C34.0033 25.3966 34.1289 25.2085 34.1289 25V19.2578C34.1289 17.3904 32.6096 15.8711 30.7422 15.8711ZM19.2578 18.7422C19.1211 18.7422 18.9899 18.7965 18.8932 18.8932L16.9023 20.884V16.3867C16.9023 15.0879 17.959 14.0312 19.2578 14.0312H25C26.1217 14.0312 27.0628 14.8195 27.2986 15.8711H25C23.3728 15.8448 21.8762 17.1312 21.6525 18.7422H19.2578ZM33.0977 23.7551L31.1068 21.7643C31.0101 21.6676 30.8789 21.6132 30.7422 21.6132H25C24.3706 21.6132 23.7792 21.3682 23.3344 20.923C21.8567 19.458 22.9166 16.8973 25 16.9023H27.871H30.7421C32.041 16.9023 33.0976 17.959 33.0976 19.2578L33.0977 23.7551Z" fill="white"/>
</g>
<defs>
<clipPath id="clip0_10435_4750">
<rect width="24" height="24" fill="white" transform="translate(13 13)"/>
</clipPath>
</defs>
</svg>
