<svg width="50" height="50" viewBox="0 0 50 50" fill="none" xmlns="http://www.w3.org/2000/svg">
<circle cx="25" cy="25" r="25" fill="#1B1F23"/>
<g clip-path="url(#clip0_10435_4708)">
<path d="M17.8772 33.1714C17.7521 32.8388 17.2799 32.7456 17.0367 33.004C16.7134 33.3225 16.9469 33.8872 17.401 33.8843C17.7565 33.8945 18.0242 33.4958 17.8772 33.1714Z" fill="white"/>
<path d="M20.6137 27.314L23.7494 25.1789C24.8044 24.4606 25.6509 23.4711 26.1973 22.3177L27.6969 19.1518C28.1544 19.3311 28.5424 19.6488 28.8127 20.0719C29.1556 20.6085 29.2652 21.2457 29.1213 21.8661L28.466 24.6901H27.107C26.8222 24.6901 26.5914 24.921 26.5914 25.2057C26.5914 25.4905 26.8222 25.7214 27.107 25.7214H35.0649C35.5576 25.7214 35.9584 26.1222 35.9584 26.6149C35.9584 27.1076 35.5576 27.5084 35.0649 27.5084H34.5884C34.3036 27.5084 34.0727 27.7393 34.0727 28.0241C34.0727 28.3088 34.3036 28.5397 34.5884 28.5397C35.0811 28.5397 35.4819 28.9405 35.4819 29.4332C35.4819 29.9259 35.0811 30.3267 34.5884 30.3267H34.0642C33.7794 30.3267 33.5486 30.5576 33.5486 30.8424C33.5486 31.1271 33.7794 31.358 34.0642 31.358C34.5569 31.358 34.9577 31.7588 34.9577 32.2515C34.9577 32.7442 34.5569 33.1451 34.0642 33.1451H33.3018C33.017 33.1451 32.7862 33.3759 32.7862 33.6607C32.7862 33.9454 33.017 34.1763 33.3018 34.1763C33.7945 34.1763 34.1953 34.5771 34.1953 35.0698C34.1953 35.5625 33.7945 35.9634 33.3018 35.9634C33.2777 35.9634 33.2542 35.9656 33.231 35.9688H27.6158C25.7977 35.9688 24.0389 35.4329 22.5296 34.4191L20.611 33.1302L20.036 33.9862L21.9546 35.2751C23.6345 36.4037 25.5921 37.0002 27.6158 37.0002H33.28C33.3075 37.0002 33.3343 36.9974 33.3606 36.9933C34.3948 36.962 35.2266 36.1116 35.2266 35.07C35.2266 34.6694 35.1036 34.297 34.8934 33.9885C35.5409 33.6782 35.9891 33.0162 35.9891 32.2516C35.9891 31.8099 35.8395 31.4025 35.5883 31.0774C36.1425 30.7391 36.5132 30.1287 36.5132 29.4333C36.5132 28.9823 36.3568 28.5674 36.0961 28.239C36.6328 27.897 36.9898 27.2971 36.9898 26.6149C36.9898 25.5536 36.1263 24.6901 35.065 24.6901H29.5246L30.1258 22.0992C30.333 21.2063 30.1753 20.289 29.6817 19.5166C29.1881 18.7441 28.422 18.2157 27.5246 18.0285C27.2913 17.9799 27.0553 18.0972 26.9533 18.3125L25.2652 21.8762C24.7973 22.8641 24.0724 23.7114 23.1689 24.3266L20.0332 26.4617L20.6137 27.314Z" fill="white"/>
<path d="M18.9813 36.9943H13.5259C13.2411 36.9943 13.0103 36.7635 13.0103 36.4787V25.1055C13.0103 24.8207 13.2411 24.5898 13.5259 24.5898H18.9813C20.0057 24.5898 20.8392 25.4233 20.8392 26.4478V35.1364C20.8392 36.1609 20.0057 36.9943 18.9813 36.9943ZM14.0415 35.9631H18.9813C19.4371 35.9631 19.8079 35.5922 19.8079 35.1364V26.4478C19.8079 25.9919 19.4371 25.6211 18.9813 25.6211H14.0415V35.9631Z" fill="#FFED92"/>
<path d="M24.7573 17.0986C24.6254 17.0986 24.4934 17.0483 24.3927 16.9476L23.4074 15.9623C23.2061 15.7609 23.2061 15.4344 23.4074 15.2331C23.6088 15.0317 23.9353 15.0317 24.1366 15.2331L25.122 16.2184C25.3233 16.4197 25.3233 16.7462 25.122 16.9476C25.0213 17.0483 24.8893 17.0986 24.7573 17.0986Z" fill="#FFED92"/>
<path d="M30.161 17.0986C30.029 17.0986 29.8971 17.0483 29.7964 16.9476C29.5951 16.7462 29.5951 16.4197 29.7964 16.2184L30.7817 15.233C30.9831 15.0317 31.3096 15.0317 31.5109 15.233C31.7123 15.4344 31.7123 15.7609 31.5109 15.9623L30.5256 16.9476C30.4249 17.0483 30.2929 17.0986 30.161 17.0986Z" fill="#FFED92"/>
<path d="M27.4592 15.4247C27.1744 15.4247 26.9435 15.1938 26.9435 14.909V13.5156C26.9435 13.2309 27.1744 13 27.4592 13C27.7439 13 27.9748 13.2309 27.9748 13.5156V14.909C27.9748 15.1938 27.7439 15.4247 27.4592 15.4247Z" fill="#FFED92"/>
</g>
<defs>
<clipPath id="clip0_10435_4708">
<rect width="24" height="24" fill="white" transform="translate(13 13)"/>
</clipPath>
</defs>
</svg>
