<svg width="79" height="18" viewBox="0 0 79 18" fill="none" xmlns="http://www.w3.org/2000/svg">
<g clip-path="url(#clip0_10435_4345)">
<path d="M27.3649 4.72849C27.3069 4.66483 27.2466 4.60053 27.1828 4.53365C27.0927 4.93269 27.0095 5.34498 26.9645 5.75048C27.2472 5.59991 27.53 5.42996 27.787 5.22704C27.6442 5.04449 27.5115 4.88907 27.3649 4.72849L27.9333 1.95329C28.3664 1.73067 28.8487 1.58527 29.3739 1.66185C30.0359 1.8318 30.4471 2.44668 30.8841 2.93102C31.2503 3.39566 31.5587 4.05642 31.2633 4.66483C31.1668 4.83511 31.0383 4.93301 30.9034 5.05741L31.1474 5.3453L31.096 5.7311L31.1605 5.72463L33.7949 4.04963C33.8656 3.99083 33.9554 3.94494 34.0519 3.93848C34.3026 4.23284 34.5342 4.47517 34.791 4.75627C35.3888 4.43575 36.2881 4.29843 36.8859 4.71039C37.3679 5.03092 37.612 5.53497 38.0296 5.9143L38.0746 5.88134C38.2482 5.63933 38.4602 5.36437 38.7172 5.18795L38.7496 5.1356C39.784 4.26547 41.4608 4.06288 42.7269 4.62509C43.1508 4.78212 43.4917 5.1356 43.8128 5.42996C44.0892 5.05386 44.4439 4.75272 44.8514 4.54593L47.0009 7.42355C46.9432 7.61192 46.8854 7.80029 46.8328 7.98834L46.7813 8.04069C46.4599 7.96863 46.1324 7.96863 45.8176 8.0604C45.3804 8.22389 45.1751 8.69531 45.1106 9.13344L46.1258 10.285C46.3123 10.6382 46.4472 11.0311 46.7937 11.2792C47.3592 11.6062 48.2331 11.7439 48.8243 11.3839C49.2546 11.1484 49.4475 10.664 49.4348 10.1538C49.4028 9.54509 49.0045 9.07399 48.6634 8.61615L47.4557 7.20286L47.1599 6.8888C47.1098 7.06716 47.0552 7.24551 47.0003 7.42322L44.8507 4.54561C45.2579 4.33881 45.717 4.22573 46.2022 4.22573C46.2927 3.64348 46.4079 3.07416 46.6976 2.58336C47.1152 1.82437 47.9056 1.21596 48.7668 1.03954C49.4158 0.871844 50.0453 0.972331 50.6502 1.13292L50.6264 4.26708C50.4686 4.36757 50.3411 4.51556 50.2703 4.69068C50.065 5.31202 50.4312 5.88134 50.8425 6.24775L52.2238 7.8507L52.6931 8.35443C52.7385 8.20386 52.7512 8.04036 52.7702 7.87687C52.4938 7.51693 52.1981 7.22257 51.8966 6.86263L52.0054 6.12335C51.7741 5.81575 51.5107 5.54757 51.2667 5.25322C51.2991 4.88002 51.427 4.55304 51.4146 4.17371C51.3181 4.14721 51.2153 4.12782 51.1128 4.12782C50.9383 4.12492 50.7704 4.17629 50.627 4.26708L50.6508 1.13292C50.9681 1.21725 51.2788 1.31806 51.5818 1.40595C51.736 1.43212 51.8969 1.39916 52.0058 1.28801C52.0829 1.19657 52.1089 1.0851 52.1346 0.973947L52.205 0.947775L53.6314 0.973947L53.6698 0.987194L54.6916 2.17786L54.7046 2.24991L54.3774 4.07516C54.4028 4.10165 54.4412 4.0687 54.4669 4.05545L56.2081 2.92359L56.2458 2.89742L57.3584 4.21248C57.339 4.49391 57.2426 4.74884 57.2232 5.03027C57.5447 5.06969 57.8531 4.99085 58.1422 4.91266L58.1872 4.91912L58.4823 5.23965C59.3629 4.61798 60.4685 4.23865 61.6248 4.51329C62.5755 4.74884 63.2051 5.61898 63.835 6.31916L63.906 6.31237L65.7694 5.09522C66.3155 4.72235 66.894 4.3624 67.4464 3.98986L67.5045 4.0031C67.7228 4.25836 67.9091 4.50037 68.1404 4.73592C68.2689 4.70975 68.3781 4.61798 68.5069 4.57889C69.0143 4.35659 69.7661 4.27807 70.2414 4.60506C70.7882 4.99117 71.096 5.53432 71.5713 5.99217C72.4452 4.82768 73.8592 4.08808 75.3884 4.39568C76.1592 4.55271 76.6732 5.16145 77.2197 5.70428C77.7785 6.33887 78.2542 7.05843 78.4017 7.90918C78.4274 8.09238 78.4788 8.26234 78.4728 8.45879C78.1323 8.63553 77.7785 8.7861 77.432 8.9496C77.4063 9.00194 77.4773 9.02843 77.49 9.06753C77.8299 9.48596 78.1967 9.91796 78.2611 10.4873C78.3636 11.6385 77.7788 12.6201 76.8989 13.2092C76.3334 13.5168 75.7355 13.7917 75.0289 13.7717C73.8786 13.7455 72.8952 13.1239 72.1952 12.2408L72.1822 12.254C72.067 12.7051 72.0025 13.183 71.9251 13.6541L71.8801 13.6996L63.5011 13.6738L62.936 13.0327H62.9039C62.1903 13.6738 61.1368 13.9946 60.1407 13.6996C59.5044 13.53 58.939 13.183 58.4633 12.7513L58.3995 12.771C57.4161 13.4512 56.3112 14.0337 55.0073 13.9416C54.3708 13.857 53.8694 13.3988 53.4839 12.8886C53.118 13.4641 52.7261 14.0205 52.1543 14.4457C52.0902 14.4392 52.0965 14.5178 52.0381 14.5307C50.8691 15.2771 49.0956 15.0871 47.9459 14.4457C47.772 14.3801 47.5985 14.3016 47.4122 14.2757C47.3287 14.2822 47.271 14.3407 47.2323 14.4134L47.2386 14.6027L45.9731 15.0741L45.9347 15.0544C45.6971 14.7795 45.4654 14.5177 45.2214 14.2496L45.183 14.2757C44.0327 16.1339 42.0986 17.4487 39.8304 17.4616C38.6226 17.4878 37.4917 17.259 36.6114 16.5592C35.9946 16.0945 35.4935 15.4338 35.0499 14.7924C34.8509 14.4457 34.883 13.9158 35.0178 13.5559L26.4076 13.5426L21.2095 13.5032L21.1901 13.51C21.1838 13.5559 21.2415 13.5752 21.2546 13.6147C21.5243 14.0854 21.6722 14.7656 21.4215 15.3026C20.9715 16.3036 19.918 16.8206 18.8832 16.9579L18.8362 16.9782C18.1664 17.0652 17.5098 17.0794 16.871 17.0277L16.5134 13.721C16.9348 13.7171 17.3537 13.6402 17.6666 13.4185C17.5317 13.2418 17.3775 13.065 17.2169 12.8886H17.1849C16.4588 13.3988 15.4053 13.5032 14.5184 13.2483C14.8589 13.4315 15.2254 13.5559 15.6106 13.6344C15.8851 13.6841 16.1999 13.7226 16.5137 13.7206L16.871 17.0273C14.1027 16.8031 11.6666 15.3378 9.91785 13.1633C9.28828 12.3455 8.58763 11.5342 8.11228 10.592C7.96441 10.3367 7.83621 10.075 7.69468 9.80034L7.67533 9.82005C7.58521 10.3041 7.48906 10.782 7.42464 11.2792L8.47213 12.4896C8.37566 13.0327 8.2922 13.5823 8.18907 14.1184L2.68255 14.1055H2.19388L1.10799 12.8557L1.41643 11.2007L1.44245 11.0963C1.98222 11.1222 2.63749 11.2337 3.00369 10.7887C3.09349 10.6514 3.11919 10.4944 3.15156 10.3306L3.85824 6.2219V6.20865C3.60755 6.29395 3.35687 6.43774 3.05509 6.39186C1.99491 6.29395 1.41009 5.2012 0.780516 4.46838C0.472077 3.98404 0.440028 3.21213 0.709753 2.69515C1.21747 1.64182 2.38681 1.26216 3.44699 1.03986C5.21067 0.590738 7.18379 0.535487 9.05981 0.743893L8.94716 3.75592C8.88147 3.75657 8.81484 3.76077 8.7482 3.7682L8.67743 4.12169L8.36265 5.92722L8.34964 6.05808C8.43944 6.02545 8.54257 6.01253 8.61968 5.94693C9.17881 5.60024 9.66685 5.06387 9.77633 4.3834C9.78267 4.21991 9.82139 4.017 9.74396 3.87289C9.4901 3.80439 9.22323 3.75237 8.94716 3.75592L9.05981 0.743893C9.20705 0.760048 9.35397 0.778142 9.49994 0.797852C10.5024 0.941959 11.4404 1.36071 12.1601 2.08028C12.6932 2.60371 13.1368 3.20567 13.535 3.83347C13.6572 4.0758 13.7407 4.3246 13.8051 4.59278C14.0234 4.55982 14.2097 4.42282 14.4283 4.37048C14.8202 4.25933 15.3152 4.17403 15.7645 4.22314C15.9213 4.24027 15.9254 4.24414 16.1117 4.26902C17.1462 4.40505 17.8335 5.32592 18.4824 6.06519L18.5532 6.13046C18.6176 5.91462 18.6433 5.67261 18.688 5.44353L18.206 4.88746C17.9814 4.46871 17.6923 4.04349 17.4543 3.64445V3.60503L18.0518 3.19953L22.203 0.536133L22.2544 0.54938L23.3597 1.79917L23.3829 1.83342C23.3638 2.03633 23.2978 2.29127 23.2788 2.50064C23.4473 2.42051 23.6104 2.30258 23.7709 2.21114L26.3025 0.555843L26.354 0.582015L27.5747 1.98205C27.5747 2.04118 27.5747 2.09999 27.5747 2.15879C27.6899 2.08609 27.8098 2.01662 27.9333 1.95329L27.3649 4.72849ZM75.1231 10.2479L74.9432 10.117C74.7826 10.2023 74.6033 10.2349 74.4551 10.3464C74.4809 10.379 74.5192 10.4055 74.5446 10.4314C74.7633 10.464 74.9886 10.4117 75.1231 10.2479ZM39.7574 14.3413L38.9669 14.2173C38.9155 14.2958 38.8578 14.394 38.8451 14.4854C39.1535 14.4661 39.481 14.4528 39.7574 14.3413Z" fill="black"/>
<path d="M74.6862 8.40773L73.0929 9.18642C73.0609 9.34346 73.119 9.50049 73.164 9.64427C73.3376 10.2201 73.7489 10.7109 74.282 10.959C74.7059 11.1031 75.2009 11.0188 75.5287 10.7432C75.6826 10.6126 75.8372 10.4359 75.92 10.2462C75.8562 10.1086 75.7534 9.98451 75.5928 9.97772C75.4259 9.87982 75.3421 9.67691 75.3805 9.46753C75.4129 9.20581 75.6058 8.95734 75.8368 8.8659C76.0682 8.76767 76.4023 8.76767 76.6083 8.92503C76.897 9.14733 76.9227 9.58579 76.8523 9.9522C76.653 10.9926 75.7534 11.738 74.777 11.98C73.7489 12.2023 72.5919 12.0262 71.9883 11.1555C71.2623 10.2789 71.0564 8.91824 71.3905 7.76022C71.6863 6.70042 72.3415 5.70588 73.344 5.2154C73.9672 4.90134 74.777 4.75077 75.4897 4.96015C76.4731 5.19569 76.9618 6.24903 77.0773 7.21061V7.25003L74.6862 8.40773ZM75.1429 6.54306C75.0207 6.19636 74.751 5.84288 74.3591 5.80379C73.9735 5.73173 73.6334 5.93529 73.415 6.21026C73.0809 6.62901 72.9695 7.11884 72.9501 7.68816C72.9375 7.85812 72.926 8.09367 72.9771 8.25748C73.0222 8.32275 73.0672 8.39481 73.1444 8.40805C73.8513 8.06103 74.5707 7.74051 75.2774 7.38735C75.239 7.1056 75.2263 6.80478 75.1429 6.54306Z" fill="black"/>
<path d="M70.5821 12.0458L67.1753 12.0526C67.1883 11.8433 67.2333 11.6274 67.2781 11.4245C67.6313 11.3783 68.0108 11.2083 68.1393 10.8423L68.2161 10.5217L68.6464 7.7543C68.6464 7.36172 68.3706 7.06737 68.0619 6.88417C67.7344 6.74006 67.3422 6.84475 67.0855 7.06058C66.732 7.3488 66.4943 7.76755 66.4172 8.23186L66.019 10.6461C66.0126 10.9663 66.2119 11.2348 66.4816 11.3657L66.6098 11.4048C66.6098 11.6274 66.5479 11.8643 66.5225 12.0801L66.3978 12.0795H63.0241L63.1212 11.4836C63.2173 11.4507 63.3265 11.4507 63.4293 11.4245C63.7317 11.3589 64.0461 11.2155 64.1877 10.9205L64.2775 10.5935L64.6119 8.55206C64.6313 8.3624 64.663 8.12685 64.5348 7.98274C64.3679 7.81925 64.1363 7.66868 63.8859 7.76044C63.6606 7.85834 63.4423 7.99599 63.269 8.17919C63.0828 9.55952 62.4979 10.9269 61.3603 11.7253C60.7181 12.1635 59.754 12.2946 58.9959 12.0132C58.4051 11.8038 57.9231 11.398 57.4858 10.9205L57.422 10.9337C56.5478 11.6536 55.526 12.3599 54.2732 12.3538C53.7658 12.3341 53.2257 12.0329 53.0648 11.536C52.8789 10.9599 52.9303 10.2141 53.0522 9.62543L53.5665 6.74006C53.4824 6.65508 53.431 6.48513 53.2832 6.48513L53.2765 6.47188L52.5698 6.45863L52.666 5.91581L55.3651 4.19492L55.6866 4.01172C55.6288 4.48281 55.5324 4.94712 55.4552 5.41175C55.5257 5.50998 55.5961 5.60142 55.6799 5.67347L57.4661 5.67994C57.3633 6.00725 57.2478 6.32131 57.1129 6.63537C56.9844 6.61566 56.8626 6.55686 56.7211 6.54361C56.252 6.53036 55.7634 6.51744 55.2947 6.5239L55.2563 6.62212L54.9028 8.83349L54.7616 9.67099C54.7476 9.74531 54.7489 9.80185 54.7489 9.80185C54.6905 10.2729 54.9091 10.6917 55.2499 10.9531C55.6802 11.1689 56.1365 10.914 56.5094 10.7308C56.7407 10.587 56.9717 10.4561 57.171 10.2794C57.0301 9.55338 56.9974 8.65707 57.2291 7.97014C57.6981 6.41307 59.0473 5.22887 60.654 5.0195C61.3863 4.99333 62.074 5.18299 62.6007 5.6347C62.9863 6.01403 63.1792 6.55718 63.3141 7.08708L63.494 7.27675C64.1106 6.87124 64.7405 6.46542 65.3573 6.07284L66.8161 5.09769C66.8611 5.08477 66.9125 5.03242 66.9443 5.03889C66.9059 5.41175 66.8161 5.76524 66.7707 6.13811C66.8161 6.22987 66.8932 6.32131 66.976 6.3869L67.0471 6.35394C67.6192 5.73228 68.3069 5.16974 69.142 4.98008C69.6174 4.8951 70.0994 5.0195 70.3888 5.38591C70.7417 5.92227 70.6138 6.70096 70.4977 7.30938L70.1705 9.1217L69.9128 10.535C69.9005 10.9146 70.1248 11.2303 70.4513 11.3735L70.6776 11.4316C70.6547 11.6465 70.6186 11.8268 70.5821 12.0458ZM61.5209 8.40149C61.5529 7.87805 61.6691 7.36786 61.598 6.82471C61.572 6.3995 61.2832 6.04602 60.917 5.86928C60.6536 5.75167 60.3128 5.77105 60.0945 5.9675C59.5097 6.42535 59.3878 7.20405 59.1949 7.89098C59.0534 8.67646 58.8604 9.51364 59.015 10.3511C59.0857 10.7696 59.3498 11.2077 59.7667 11.313C60.0688 11.4042 60.3709 11.2933 60.5892 11.1101C61.1417 10.5738 61.2515 9.78828 61.4247 9.06193L61.5209 8.40149Z" fill="black"/>
<path d="M52.6599 4.80301L52.6342 4.82272L51.9726 4.79655C52.043 4.24662 52.043 3.62528 51.6638 3.2327C51.2208 2.69601 50.5332 2.32347 49.8072 2.55223C49.3378 2.69601 48.9269 3.0692 48.8238 3.57293C48.6565 4.33838 49.1125 4.9665 49.5174 5.48994C50.4044 6.6218 51.3938 7.62279 52.1525 8.80699C52.5891 9.55951 52.4866 10.6914 52.1074 11.4436C51.7539 12.366 50.8607 13.1583 49.8906 13.3409C48.6889 13.6223 47.6608 13.053 46.6327 12.6998C46.4657 12.6543 46.2281 12.5955 46.0675 12.6934C45.9133 12.7848 45.7841 12.9354 45.7524 13.1315C45.6109 13.21 45.457 13.262 45.2897 13.295L45.0137 12.5034L44.1912 10.0762L44.1978 10.0629C44.4418 9.97762 44.6859 9.89296 44.9235 9.83416C45.4827 11.0836 46.5943 12.0982 48.0143 12.1502C48.773 12.1893 49.4921 11.8097 49.8198 11.1554C50.0642 10.691 50.1216 9.98473 49.8456 9.50685C49.3572 8.55141 48.5026 7.78596 47.8083 6.95525C47.1534 6.18334 46.7098 5.2544 46.8189 4.14193C46.896 3.42236 47.1724 2.7154 47.7446 2.26401C48.3805 1.73411 49.2287 1.40034 50.1216 1.57062C50.5909 1.64913 51.0276 1.82588 51.4842 1.94349C51.8437 2.00229 52.2293 1.95641 52.4346 1.65527L52.525 1.52441L53.18 1.53766L53.1994 1.55737L52.7434 4.28539L52.6599 4.80301Z" fill="black"/>
<path d="M45.566 6.37902C45.0716 6.3396 44.5833 6.4249 44.2495 6.7716C43.7481 7.25594 43.7544 8.02785 43.4206 8.61009C42.9706 9.49994 42.1291 10.1216 41.1267 10.213C40.5161 10.2654 39.9443 10.1281 39.4176 9.93194C39.3211 10.004 39.3081 10.1345 39.2824 10.246C39.1796 10.5665 39.2954 10.9068 39.5137 11.1226C39.8095 11.4958 40.3746 11.3846 40.8246 11.3714C41.7623 11.2864 42.8675 11.1423 43.7224 11.5023C43.9731 11.6922 44.1016 12.006 44.0242 12.3333C43.8058 13.2361 43.1569 13.9421 42.4696 14.5443C40.9851 15.8797 38.4986 16.3179 36.6159 15.4406C36.166 15.2316 35.6392 14.9434 35.5491 14.3941C35.459 13.7724 35.9089 13.2752 36.3202 12.9285C36.6737 12.6538 37.0913 12.4441 37.4835 12.2415C37.5155 12.2066 37.407 12.0874 37.3781 12.0412C37.3439 11.9859 37.3353 11.9669 37.2712 11.9472L33.6858 11.9404C33.6921 11.7704 33.7245 11.5937 33.7629 11.4302C34.1164 11.3517 34.4889 11.2011 34.6558 10.8609L34.7072 10.658L35.1892 7.7923C35.2149 7.58939 35.2019 7.36709 35.0801 7.21684C34.8487 6.93541 34.4826 6.76546 34.1033 6.88307C33.5252 7.09245 33.0495 7.62235 32.9404 8.23076L32.5742 10.5009C32.5742 10.8741 32.7861 11.2076 33.1203 11.3384C33.1203 11.5349 33.0689 11.7375 33.0305 11.9275H29.8109C29.8239 11.7704 29.8557 11.5872 29.888 11.4234C30.2542 11.3252 30.6334 11.1484 30.7299 10.7429L31.1665 8.19813C31.1278 7.93641 30.9158 7.72703 30.6845 7.65498L30.3951 7.64852C30.2859 7.47824 30.1831 7.29504 30.0867 7.11183L30.1574 7.04656L33.4281 5.01194C33.3897 5.56155 33.2548 6.0782 33.1841 6.61489C33.2482 6.68016 33.2932 6.75867 33.3767 6.77192C33.8009 6.26819 34.2826 5.82327 34.8097 5.43069C35.3301 5.03811 36.2043 4.88108 36.7952 5.25427C37.1487 5.5357 37.2049 5.93442 37.1598 6.39259L37.1382 6.52183L36.5445 10.5736C36.5388 10.8738 36.8209 11.1885 37.1163 11.2997C37.2706 11.3649 37.4441 11.404 37.6177 11.385C37.6755 10.7565 38.0804 10.1484 38.6842 9.97814C38.774 9.93258 38.8705 9.91933 38.9543 9.86085C38.8642 9.72999 38.7296 9.6253 38.6265 9.49444C38.0353 8.83336 37.9649 7.67534 38.2923 6.8443C38.5944 6.08531 39.2113 5.39192 39.9948 5.1302C41.1708 4.70498 42.7 4.88819 43.5355 5.79774C43.6897 5.96124 43.863 6.13119 43.9918 6.32118C44.0559 6.3144 44.0626 6.2362 44.0946 6.19032C44.4221 5.47076 45.1675 4.95378 45.9516 4.92761C45.8491 5.42391 45.7012 5.89468 45.566 6.37902ZM42.0323 8.12607C42.1862 7.53704 42.3665 6.74543 42.0647 6.17643C41.8591 5.82941 41.5249 5.5874 41.107 5.64653C40.6957 5.73151 40.4647 6.11084 40.3102 6.47078C40.0659 7.25594 39.732 8.3222 40.2201 9.09444C40.4 9.34969 40.6634 9.53936 41.0042 9.48055C41.4542 9.42142 41.7239 8.9374 41.8908 8.571L42.0323 8.12607ZM41.9038 13.6412C41.9746 13.3663 41.8203 13.1372 41.6464 12.9743C41.2482 12.5556 40.5802 12.7911 40.0662 12.8234C39.6035 12.8561 39.1536 12.8367 38.7299 12.7388C38.3958 12.6661 38.0937 12.5165 37.7786 12.385C37.3804 12.8625 36.9434 13.4516 37.1681 14.1518C37.3223 14.492 37.6114 14.8846 37.9842 14.9825C38.7683 15.2245 39.6676 15.0477 40.4003 14.7989L40.407 14.8057C40.8633 14.6164 41.3193 14.4203 41.6598 14.0403C41.762 13.9223 41.8394 13.7853 41.9038 13.6412Z" fill="black"/>
<path d="M29.1814 3.96509C28.7895 4.27916 28.179 4.46236 27.6779 4.22681C27.4529 3.99773 27.4209 3.58576 27.5364 3.28462C27.7871 2.69592 28.3976 2.37539 29.0078 2.30301C29.3226 2.29655 29.6631 2.40124 29.811 2.69559C29.9718 3.2452 29.5155 3.65749 29.1814 3.96509Z" fill="black"/>
<path d="M29.2712 5.33281L28.9948 7.02752L28.5128 9.86055C28.4678 10.2266 28.2878 10.71 28.5449 11.0376C28.6797 11.2864 28.9561 11.3976 29.2325 11.4241C29.2325 11.5879 29.2005 11.7575 29.1617 11.9152L25.5122 11.902C25.5252 11.732 25.5573 11.5747 25.5893 11.4108C25.7823 11.3326 26.0199 11.3194 26.2062 11.1953C26.3604 11.0838 26.5146 10.9333 26.5917 10.7565C26.746 9.95878 26.8624 9.18816 26.9973 8.38362C26.9973 8.12158 26.8164 7.87827 26.5981 7.77326C26.508 7.74709 26.4052 7.77326 26.315 7.74709C26.1738 7.54418 26.071 7.34126 25.9682 7.10572L29.2709 5.07109L29.3223 5.04492C29.3036 5.14315 29.3026 5.16932 29.2712 5.33281Z" fill="black"/>
<path d="M24.3686 10.2524C24.2978 10.6188 24.3943 10.9981 24.6961 11.201C24.7668 11.2537 24.8566 11.2863 24.9404 11.3125C24.9341 11.5086 24.8953 11.7115 24.8506 11.9012L21.4321 11.8682L21.4127 11.8553C21.4257 11.6653 21.4578 11.4889 21.4835 11.2989L21.5349 11.2663C21.869 11.2068 22.2095 11.0896 22.3958 10.7884L22.4666 10.5726L22.8521 8.33504L23.3084 5.62608C23.3405 5.33819 23.4947 5.01121 23.3278 4.73656C23.2313 4.58599 23.0901 4.43542 22.9102 4.40925C22.801 4.38954 22.6982 4.4225 22.589 4.41571C22.4799 4.2393 22.3771 4.04963 22.2806 3.87289L22.3384 3.82701L24.8249 2.21113L25.8016 1.58301L25.6541 2.584L24.3686 10.2524Z" fill="black"/>
<path d="M16.9731 10.5211C16.5037 11.0377 15.9706 11.5612 15.2766 11.7444C14.7239 11.9014 14.0492 12.0061 13.4901 11.777C12.8478 11.5547 12.25 11.0442 12.006 10.4035C11.6975 9.71009 11.6011 8.83317 11.749 8.0283C11.8581 7.40664 12.1151 6.81793 12.5137 6.34005C13.0535 5.73163 13.7344 5.18202 14.5182 4.92677C15.5464 4.58007 16.7735 4.78945 17.4998 5.58753C18.2262 6.50354 18.348 8.09971 17.8276 9.186C17.5963 9.67035 17.3069 10.1153 16.9731 10.5211ZM16.1312 6.24861C15.9963 5.97397 15.7393 5.68608 15.4115 5.64698C15.0774 5.56814 14.7949 5.75167 14.5763 5.95458C13.9597 6.76591 13.7605 7.78629 13.6189 8.82024C13.5802 9.36339 13.4647 10.0174 13.6834 10.5146C13.8823 10.809 14.146 11.1554 14.5636 11.1033C15.5276 11.0187 15.7269 9.91914 15.9516 9.15369C16.1118 8.23089 16.459 7.21019 16.1312 6.24861Z" fill="black"/>
<path d="M9.01136 1.33728C9.27284 1.36475 9.53273 1.39706 9.78912 1.43292C10.2581 1.53761 10.7595 1.58349 11.1641 1.84521C11.8708 2.3163 12.4556 3.06237 12.526 3.95867C12.6482 5.32607 11.8901 6.52998 10.7462 7.08605C10.4701 7.23662 10.168 7.32839 9.85925 7.41304C9.87226 7.79916 9.98777 8.14586 10.0522 8.51226C10.3863 9.84025 11.074 11.0706 12.0183 12.0455C13.0144 13.1121 14.2542 14.041 15.758 14.283C16.7671 14.3612 17.9428 14.3683 18.4952 13.4584C18.6621 13.1515 18.6751 12.6933 18.4629 12.4051C18.2125 12.0061 17.7689 11.8558 17.3126 11.8296C17.3319 11.6529 17.3449 11.45 17.3963 11.2865L17.4157 11.2668C17.7628 11.2467 18.1033 11.103 18.2639 10.7889C18.3473 10.586 18.3664 10.3637 18.4051 10.1411L18.7843 7.97558L19.3434 4.86758C19.3628 4.65821 19.2406 4.44883 19.0607 4.37032C18.9255 4.29826 18.7392 4.27209 18.585 4.31797C18.4629 4.16094 18.3537 3.99098 18.2699 3.801C18.328 3.70277 18.4435 3.68338 18.5273 3.61779L21.6437 1.59609L21.6243 1.85781L20.1786 10.2913C20.1656 10.6118 20.2364 10.9388 20.5001 11.122C20.5899 11.1944 20.7054 11.2532 20.8279 11.2729L20.8406 11.2926L20.7571 11.8487L18.836 11.8616C18.8167 11.8817 18.8294 11.9078 18.8424 11.9272C18.9836 12.0577 19.0737 12.2019 19.2022 12.3392C19.5941 12.4507 20.0184 12.6927 20.1212 13.1308C20.2434 13.6216 20.0698 14.1056 19.7613 14.4397C18.6434 15.5974 16.7994 15.6233 15.2636 15.3619C13.9784 15.094 12.719 14.6685 11.6782 13.8704C10.2578 12.8558 9.13988 11.4364 8.34974 9.86609C8.09906 9.31002 7.90644 8.7281 7.70716 8.14553L7.34097 7.73971C7.05824 7.70061 6.76915 7.6809 6.48007 7.67444C6.45437 7.6809 6.422 7.7074 6.422 7.73971C6.27445 8.77334 6.06882 9.78112 5.90826 10.8083C5.94697 11.2665 6.28714 11.6196 6.69839 11.7702C6.7498 11.796 6.82056 11.7831 6.87831 11.796C6.8653 12.0384 6.8139 12.2804 6.7755 12.5162H6.43501H1.77004L1.75703 12.483C1.80209 12.2342 1.81478 11.9728 1.89189 11.7501C2.47005 11.724 3.10629 11.6781 3.44678 11.1543C3.54324 10.9779 3.601 10.7818 3.64605 10.5789L4.3337 6.69251L5.12383 2.38739C5.04609 2.31372 4.97279 2.12567 4.81888 2.17155C4.07349 2.17801 3.42774 2.42681 2.84957 2.82585C2.74676 2.937 2.93969 2.95671 2.97143 3.0349C3.1707 3.23135 3.32492 3.49953 3.27352 3.8136C3.21576 4.1212 2.99713 4.41523 2.72074 4.54641C2.35455 4.71637 1.78241 4.71637 1.48698 4.42234C1.1465 4.06885 1.08874 3.44719 1.28136 3.00259C1.6412 2.18448 2.55351 1.90983 3.34396 1.67428C4.30799 1.45166 5.29741 1.28171 6.33188 1.24261C7.22832 1.20287 8.13238 1.24423 9.01136 1.33728ZM9.0872 2.41324C8.59123 2.2184 8.01084 2.17898 7.44379 2.17898L7.41586 2.1806L7.0008 4.54092L6.63461 6.67377L6.62668 6.72869C6.72949 6.82918 6.75678 6.90285 6.84658 6.94195C7.84901 6.94195 8.83842 6.68701 9.53241 5.98651C9.88591 5.63335 10.1109 5.26016 10.2521 4.80878C10.4511 4.2527 10.3486 3.56545 9.99507 3.12085C9.76025 2.77544 9.44546 2.55379 9.0872 2.41324Z" fill="black"/>
<path d="M15.7779 8.94439C15.6748 9.37606 15.5336 9.79482 15.3924 10.2068C15.2382 10.5406 14.9554 10.822 14.5829 10.8743C14.2678 10.9002 13.9597 10.8019 13.7991 10.5406C13.5164 10.0304 13.6833 9.34343 13.709 8.76086C13.8115 7.89073 14.0238 7.06647 14.4157 6.30717C14.6083 6.01281 14.8463 5.712 15.2445 5.71846C15.5403 5.69875 15.7649 5.8561 15.8998 6.09133C16.2082 6.70653 16.0283 7.53078 15.9385 8.18508L15.7779 8.94439ZM15.6301 8.44712C15.7392 7.72723 15.9706 6.88973 15.6878 6.17017C15.5977 6.0196 15.4308 5.94108 15.2509 5.93462C14.9427 5.94108 14.7435 6.19634 14.615 6.43835C14.2678 7.12528 14.1266 7.89751 13.9981 8.67621L13.9867 8.76668C13.9495 9.00869 13.9337 9.04972 13.9143 9.36928C13.8927 9.72858 13.8499 10.1286 14.0492 10.4162C14.1199 10.5273 14.2421 10.5732 14.364 10.5929C14.647 10.6388 14.9037 10.4814 15.0452 10.2724C15.2572 9.89272 15.3857 9.48075 15.4949 9.06168L15.6301 8.44712Z" fill="white"/>
<path d="M10.1185 4.04992C10.1321 4.91134 9.61899 5.65352 8.97324 6.11072C8.77396 6.24804 8.56199 6.36598 8.33066 6.45095C7.83595 6.62091 7.28159 6.67099 6.72278 6.67746L6.75007 6.43125L7.32823 3.16654L7.49514 2.28316C8.00286 2.27023 8.49757 2.32258 8.95388 2.45311C9.50666 2.62985 9.9306 3.10741 10.0782 3.67027C10.1032 3.79919 10.1162 3.92585 10.1185 4.04992ZM8.56643 6.08746C8.57976 6.08035 8.5934 6.07292 8.60673 6.06548C8.8571 5.92138 9.07573 5.75788 9.28136 5.53558C9.76972 5.01861 10.0718 4.25962 9.79542 3.53359C9.51903 2.73519 8.63878 2.56491 7.86768 2.51935C7.80358 2.51289 7.71346 2.5061 7.66206 2.54552L7.56559 3.0625C7.46278 3.57301 7.39233 4.0832 7.30221 4.59339L7.01281 6.22898L7.00012 6.39893L7.25049 6.40572C7.7233 6.38019 8.17136 6.29974 8.56643 6.08746Z" fill="white"/>
<path d="M41.5116 8.77343C41.3637 9.02223 41.1327 9.25131 40.8243 9.23806C40.5993 9.22482 40.4 9.10042 40.2522 8.94371C39.9374 8.47262 40.0983 7.80507 40.1687 7.26871C40.2909 6.75819 40.4321 6.20858 40.8563 5.86867C41.0233 5.77691 41.2222 5.7181 41.4282 5.76398C41.6595 5.82925 41.8845 6.01924 41.9292 6.28096C42.0384 6.75852 41.9549 7.28195 41.8651 7.74659C41.762 8.09296 41.6982 8.45937 41.5116 8.77343ZM41.6725 7.38664C41.7045 7.00699 41.8074 6.5556 41.6271 6.20858C41.5116 6.03863 41.306 5.96011 41.1134 6.01246C40.7472 6.19566 40.6507 6.57499 40.5222 6.92169C40.4 7.46484 40.2458 8.05354 40.3616 8.64257C40.4324 8.78636 40.5412 8.91075 40.6958 8.94985C40.9208 9.01544 41.1261 8.90397 41.2422 8.74047C41.4669 8.32205 41.5824 7.85741 41.6725 7.38664Z" fill="white"/>
<path d="M41.319 13.995C40.6894 14.4793 39.9117 14.754 39.0958 14.8458C38.5303 14.8981 37.9906 14.8063 37.5536 14.5249C37.3093 14.3417 37.1681 14.0344 37.1874 13.6942C37.2452 13.2296 37.5019 12.8043 37.817 12.4971C38.3888 12.8176 39.0444 12.9617 39.7574 12.9352C40.2398 12.922 40.6958 12.7914 41.1908 12.837C41.364 12.8696 41.544 12.9614 41.6338 13.1313C41.6852 13.2425 41.6982 13.3934 41.6725 13.5239C41.5887 13.7003 41.4669 13.8509 41.319 13.995ZM41.4151 13.3145C41.4024 13.2489 41.351 13.2228 41.3123 13.1772C40.9848 12.9808 40.5799 13.1704 40.2201 13.164C39.6419 13.1837 39.0377 13.1969 38.5173 13.046C38.2797 12.9872 38.0677 12.8893 37.843 12.8105C37.5666 13.131 37.3159 13.596 37.5086 14.047C37.6758 14.3937 38.087 14.5246 38.4596 14.5834C39.3655 14.6619 40.1623 14.4002 40.882 13.9947C41.0813 13.8118 41.4732 13.6745 41.4151 13.3145Z" fill="white"/>
<path d="M60.8141 10.2718C60.6917 10.5987 60.499 10.9584 60.1455 11.0963C59.8822 11.1548 59.5547 11.1157 59.3618 10.9063C58.9956 10.5267 59.047 9.91828 59.066 9.37545C59.1498 8.43327 59.3294 7.5305 59.6635 6.69299C59.8374 6.33984 60.0811 5.96018 60.499 5.88813C60.7688 5.86196 61.0258 5.95372 61.18 6.17634C61.4567 6.69299 61.3536 7.39964 61.3088 7.99513C61.2187 8.78675 61.0645 9.5522 60.8141 10.2718ZM60.7237 6.14338C60.4606 6.05808 60.2293 6.23515 60.0688 6.42481C59.6769 7.0985 59.5353 7.8969 59.4071 8.68852C59.3687 9.27723 59.2079 9.94477 59.4198 10.5005C59.5033 10.6773 59.6702 10.8152 59.8568 10.8543C60.0561 10.874 60.2103 10.7758 60.3385 10.6252C60.6282 10.1868 60.7821 9.66335 60.8786 9.12698C60.9811 8.56413 61.0648 7.99481 61.0969 7.4061C61.1289 6.94793 61.1933 6.33305 60.7237 6.14338Z" fill="white"/>
<path d="M73.0996 8.15815L73.0542 8.17139C73.0091 7.34714 73.0996 6.46376 73.7675 6.01237C73.9795 5.83596 74.333 5.8618 74.5707 5.97295C74.9626 6.20172 74.9949 6.71223 75.027 7.15715L75.0143 7.24892L73.0996 8.15815ZM74.7316 7.13098C74.7382 6.81046 74.7509 6.48347 74.5389 6.26085C74.3593 6.11706 74.0699 6.12999 73.877 6.22821C73.3823 6.55552 73.2992 7.19011 73.3055 7.79174L73.3309 7.79853L74.7316 7.13098Z" fill="white"/>
<path d="M28.5257 10.2588C28.4807 10.4749 28.455 10.7299 28.6028 10.9066C28.7828 11.1224 29.0525 11.221 29.3482 11.2271L29.3612 11.2601L29.2327 12.0058L25.2681 11.9929L25.2487 11.9667L25.3772 11.1816C25.7691 11.1748 26.1871 11.051 26.3476 10.671L26.412 10.462L26.7719 8.3159C26.7719 8.17179 26.7462 8.02155 26.637 7.92978C26.5022 7.79925 26.2772 7.85127 26.123 7.91007C25.956 7.62864 25.8209 7.33429 25.6666 7.05286L25.6793 7.00052L29.162 4.83503L29.4514 4.65829L29.4783 4.67154L29.4514 4.89384L28.5257 10.2588ZM25.7307 2.57779L25.2233 5.62019C25.1269 6.20244 25.0304 6.79147 24.9209 7.38017L24.5611 9.57861C24.529 9.92531 24.4135 10.2588 24.4456 10.6255C24.4843 10.8743 24.6963 11.0507 24.9276 11.116C24.9723 11.1357 25.0625 11.1228 25.0625 11.1948L24.9403 11.9796L24.8438 11.9994L21.1813 11.9667L21.1619 11.9341L21.2904 11.0833C21.6503 11.0371 22.0806 10.9586 22.2157 10.5731L22.2929 10.2588L23.1668 5.12293C23.1668 4.92001 23.1991 4.67154 23.0062 4.56653C22.8453 4.45538 22.6273 4.50126 22.4728 4.57978L22.415 4.57332L21.9847 3.82079L21.9977 3.76845L25.9173 1.22331L25.9494 1.23656C25.9234 1.70765 25.7885 2.1264 25.7307 2.57779ZM49.4025 1.05335C48.7983 1.0666 48.2645 1.26273 47.7828 1.57033C46.8639 2.1264 46.4012 3.1862 46.3241 4.28542L46.2984 4.32484C45.7748 4.31806 45.2925 4.42856 44.8711 4.64989C44.4652 4.86347 44.1146 5.17979 43.8372 5.59402H43.8179C42.9763 4.52743 41.5176 4.19398 40.181 4.54068C38.9025 4.83536 37.797 5.99306 37.6107 7.34108C37.4628 8.17179 37.7586 8.96374 38.2596 9.5392C38.2726 9.55923 38.292 9.59832 38.2663 9.6245C37.8744 9.77474 37.5142 10.1153 37.328 10.4946C37.2382 10.5796 37.2896 10.8481 37.1033 10.7628C36.9491 10.6843 36.9301 10.514 36.9301 10.357L37.4892 6.51004C37.5215 6.1698 37.5215 5.79693 37.3991 5.50258C37.1807 4.96622 36.6794 4.59335 36.0949 4.55393C35.1502 4.52776 34.3534 5.08383 33.7559 5.71842C33.7429 5.73813 33.7045 5.7643 33.6784 5.73813C33.7622 5.19498 33.852 4.65215 33.9421 4.10901H33.9101L31.6676 5.51583L29.6437 6.80471L29.3866 6.95496L29.3736 6.94171L29.65 5.24054C29.7144 4.86121 29.7912 4.46863 29.8299 4.09544C29.6373 4.18074 29.4511 4.31806 29.2645 4.41596C29.2518 4.42921 29.2131 4.43567 29.2067 4.41596C29.5729 4.12807 29.9328 3.79462 30.1257 3.37587C30.2989 3.05534 30.2669 2.56454 30.0743 2.27019C29.8172 1.87115 29.3736 1.69441 28.8856 1.74675C28.0053 1.87761 27.1508 2.40751 26.9131 3.31706C26.8166 3.62466 26.9064 3.95811 27.061 4.20691C27.3694 4.63212 27.9025 4.75006 28.4293 4.68479C28.6412 4.65829 28.8215 4.55393 29.0335 4.54068L29.0271 4.55393C28.6416 4.82857 28.2303 5.07091 27.8317 5.33262L27.4151 5.60016L26.3026 6.31391L25.2938 6.94204L25.2744 6.92233C25.2614 6.91586 25.2614 6.88937 25.2744 6.88291L26.2512 0.922495L26.2769 0.700195L26.2381 0.719905L21.7341 3.66408C21.7017 3.68379 21.6633 3.7035 21.6312 3.68379C21.7791 2.70219 21.9654 1.72736 22.1133 0.746077L21.9974 0.80456L19.2215 2.57779L17.8913 3.44792L17.6022 3.66376C17.8268 4.04988 18.0779 4.46184 18.3282 4.8415C18.4761 4.78237 18.611 4.57945 18.7972 4.67768C18.868 4.71064 18.8807 4.78915 18.868 4.86088L18.4954 7.00666C18.4824 7.00666 18.4697 7.00666 18.4631 6.99373C18.2768 5.80307 17.4607 4.74327 16.298 4.41564C14.9424 4.11482 13.6442 4.61855 12.6995 5.48869H12.6548C12.6998 5.29256 12.7896 5.10936 12.8284 4.89998C13.034 4.09511 12.8284 3.24436 12.4044 2.6101C11.6847 1.47824 10.3932 0.98744 9.10171 0.843333C7.45036 0.647205 5.67049 0.699549 4.05119 1.00683C2.83013 1.26273 1.4101 1.51152 0.793225 2.77424C0.542539 3.25826 0.574906 3.9649 0.883345 4.41628C1.26858 4.96622 1.95653 5.16235 2.63751 5.04441C3.10683 4.87445 3.54347 4.55361 3.65263 4.02371C3.7491 3.61142 3.60757 3.20591 3.35688 2.92448C3.62026 2.74807 3.91601 2.64338 4.22445 2.57133C4.35296 2.55808 4.47513 2.50573 4.59698 2.53837L4.57128 2.78716L3.83858 6.95464L3.24804 10.3964L3.15792 10.7428C2.84314 11.3124 2.09774 11.2074 1.50657 11.2142C1.40376 11.7312 1.30761 12.2546 1.24319 12.7842L6.73067 12.7974L7.07116 12.7842C7.17397 12.3063 7.23807 11.8155 7.32184 11.3318C7.07116 11.2927 6.80778 11.2989 6.57645 11.201C6.32576 11.0636 6.26135 10.7557 6.28705 10.4681L6.69196 8.07357L6.74336 8.04061L7.14795 8.06711C7.57856 9.50656 8.25953 10.8349 9.15915 12.0317C10.1809 13.2811 11.4464 14.3215 12.8861 14.9758C13.9945 15.4469 15.215 15.804 16.4849 15.8427C16.9082 15.8557 17.3372 15.8331 17.7694 15.7678C18.7782 15.5717 19.9412 15.1658 20.3524 14.1186C20.5644 13.6608 20.5193 13.033 20.269 12.6204C20.1788 12.4572 20.0443 12.3587 19.9091 12.241C19.9158 12.2343 19.9221 12.2278 19.9285 12.2343L25.5572 12.2672L36.3132 12.2872C36.3455 12.2937 36.4033 12.2872 36.4033 12.3331C35.8121 12.6927 35.253 13.1373 35.041 13.8246C34.8868 14.3283 35.1245 14.8385 35.4586 15.159C36.0565 15.6631 36.7952 15.9445 37.5536 16.1148C39.3849 16.4479 41.2549 16.0227 42.5978 14.8977C43.4073 14.1842 44.2104 13.38 44.384 12.241L44.4033 12.221C44.596 12.7183 44.7632 13.2223 44.9301 13.7257L44.9558 13.7652C45.3607 13.6475 45.7399 13.464 46.1255 13.3202C46.1061 13.2288 46.1448 13.137 46.1959 13.0582C46.3441 12.9409 46.5367 13.0453 46.6976 13.0714C47.5842 13.4249 48.4641 13.8307 49.5116 13.7519C50.8485 13.6795 52.0886 12.6394 52.4995 11.3835C52.5192 11.3373 52.5319 11.2591 52.5767 11.253C52.6922 11.8414 53.1101 12.3386 53.6559 12.5612C55.1016 13.0126 56.3801 12.1754 57.4466 11.4161L57.4923 11.4094C58.0314 11.9069 58.5972 12.3128 59.3039 12.4566C60.2549 12.6588 61.1672 12.3713 61.8422 11.7822C62.87 10.9447 63.3457 9.66908 63.5706 8.38666L63.6344 8.30815C63.776 8.22317 63.8981 8.0335 64.0847 8.11848C64.1358 8.1579 64.1618 8.22317 64.1682 8.28876L63.8277 10.4675C63.8083 10.5525 63.7893 10.6442 63.7509 10.7292C63.5326 11.0239 63.1213 10.978 62.7612 10.9974C62.671 11.4423 62.6069 11.894 62.5298 12.3386H63.1404L70.8253 12.3519C70.8958 11.9069 70.9919 11.4753 71.05 11.0303C70.838 11.0039 70.6003 11.0236 70.4268 10.8992C70.2532 10.8009 70.2659 10.5786 70.2595 10.3822C70.401 9.5644 70.5553 8.75307 70.6771 7.93528C70.7799 7.22863 71.0246 6.52845 70.8827 5.77593C70.7542 5.2134 70.356 4.61791 69.7648 4.52C68.7497 4.38268 67.9402 4.91258 67.2202 5.51454L67.2072 5.50129C67.2846 5.04344 67.3424 4.57235 67.4128 4.12096L63.6091 6.60697C63.5897 6.62668 63.5513 6.62668 63.5323 6.60697C63.2616 5.76947 62.658 5.00434 61.8292 4.69642C60.3127 4.17298 58.7902 4.91872 57.8388 6.01148C57.8134 6.02473 57.7877 6.07028 57.762 6.04411L58.1095 5.04958C57.4022 5.21307 56.6057 5.14748 55.8343 5.16073L55.8219 5.12131L55.9755 4.2641C56.0469 3.87798 56.1129 3.4699 56.1611 3.06924L55.4037 3.551L53.1034 5.0625C53.052 5.08868 53.0136 5.14102 52.9495 5.11485L52.9752 4.91226L53.4893 1.7978C53.5147 1.54901 53.5791 1.307 53.5857 1.06499C53.1488 1.05174 52.6665 1.05174 52.2168 1.06499C52.1848 1.20909 52.108 1.35966 51.9664 1.43786C51.7545 1.62106 51.4587 1.46403 51.2271 1.41815C51.0459 1.35643 50.8644 1.29407 50.68 1.2385C50.2789 1.11927 49.8648 1.03106 49.4025 1.05335ZM70.6324 12.1693L66.9565 12.1625L66.9311 12.1234L67.0726 11.2071C67.3808 11.1877 67.6762 11.0963 67.8564 10.841C67.9592 10.6449 67.9786 10.4158 68.023 10.1932L68.4089 7.64835C68.4216 7.3931 68.2997 7.1443 68.0944 7.02023C67.7853 6.84349 67.3681 6.93525 67.1174 7.15755C66.8089 7.39988 66.6423 7.77275 66.5392 8.15855L66.1216 10.6384C66.141 10.874 66.3015 11.0371 66.4945 11.1224C66.5716 11.1486 66.6617 11.1486 66.7321 11.1948C66.7001 11.5089 66.6341 11.8782 66.589 12.1926L66.5329 12.1958H62.7932C62.7932 11.8685 62.8833 11.5609 62.922 11.2404L62.9347 11.2145C63.2879 11.2077 63.6605 11.2013 63.8984 10.9392L64.0013 10.7302C64.1682 9.89268 64.2773 9.03579 64.4252 8.19829C64.4058 8.05418 64.3484 7.92332 64.2199 7.85159C63.8724 7.76661 63.571 8.02155 63.3526 8.24417C63.2495 8.892 63.0696 9.51367 62.8062 10.0956C62.5555 10.6581 62.1827 11.1098 61.733 11.5609C61.1609 12.052 60.4418 12.3137 59.6254 12.2349C58.7584 12.1826 58.0381 11.6394 57.4793 11.0439C57.1068 11.2992 56.7466 11.6 56.3484 11.8158C55.5643 12.2743 54.5558 12.6339 53.6305 12.2937C52.7636 11.8617 52.6665 10.8019 52.7442 9.86618L52.821 9.35599L53.329 6.60148L53.3224 6.58177C52.9882 6.5556 52.6604 6.56206 52.3203 6.5556C52.3587 6.29388 52.4037 6.01891 52.4675 5.75719C53.5861 5.0373 54.6897 4.29318 55.8394 3.56715L55.8222 3.72257L55.5582 5.35815L55.6099 5.37786L57.6465 5.38465V5.45638L57.1585 6.76497C57.0747 6.74526 57.0043 6.69292 56.9208 6.66675L56.6831 6.62733L55.3723 6.6144L55.3396 6.66028L54.8195 9.85972C54.7935 10.2323 54.935 10.5857 55.2565 10.7425C55.6804 10.9192 56.0663 10.6446 56.4131 10.4746L56.9909 10.1079C56.6568 8.59022 57.0941 7.03283 58.1479 6.02537C59.0666 5.0764 60.4993 4.41564 61.8425 4.97203C62.684 5.33844 63.1661 6.13652 63.3974 7.0002L63.4421 6.99341L66.0642 5.28577C66.411 5.06347 66.7321 4.82114 67.0923 4.6318L67.1117 4.66443C67.0539 5.14199 66.9378 5.59337 66.8867 6.07125C67.0406 6.00599 67.1564 5.84895 67.3109 5.74427C68.0433 5.11614 69.0261 4.37686 70.0545 4.89352C70.614 5.30548 70.8063 6.07125 70.6777 6.80407L70.4594 8.04061L70.0612 10.1738C70.0098 10.4355 69.9454 10.7822 70.151 10.9851C70.3116 11.1547 70.5556 11.188 70.7875 11.2142L70.7999 11.2271C70.7282 11.5347 70.6835 11.8556 70.6324 12.1693ZM52.7309 4.89384L52.6985 4.91355L51.7154 4.89384C51.7602 4.35716 51.8566 3.6964 51.5288 3.27151C51.2077 2.7807 50.6292 2.52544 50.0127 2.61075C49.5373 2.68926 49.1001 2.99008 48.9522 3.46763C48.843 3.83372 48.8751 4.29835 49.0486 4.61887C49.4856 5.39111 50.1409 5.97335 50.7194 6.64736C51.5676 7.67453 52.6661 8.68198 52.5119 10.2197C52.3897 11.4824 51.6831 12.7781 50.4947 13.2359C49.7426 13.5693 48.7148 13.5894 47.944 13.2947C47.4166 13.1183 46.9286 12.8756 46.3822 12.7519C46.2023 12.739 46.0223 12.8107 45.9259 12.9609C45.8811 13.0262 45.8621 13.118 45.8421 13.2029C45.5981 13.3144 45.354 13.4059 45.0967 13.4711L44.8463 12.7777L43.8823 9.90495L43.8953 9.87911C44.2425 9.78088 44.5763 9.64356 44.9298 9.55858C45.354 10.8281 46.4917 11.8879 47.8857 11.9399C48.5473 11.9858 49.1511 11.7241 49.5046 11.2139C49.8581 10.7098 49.8905 9.87911 49.5757 9.34274C48.7983 7.7986 47.0825 6.84995 46.6903 5.08965C46.517 4.55328 46.5748 3.87928 46.742 3.35584C47.0501 2.35484 47.9304 1.53059 48.9522 1.36031C49.3895 1.27501 49.9099 1.27501 50.3402 1.38002C50.8158 1.47824 51.2398 1.72025 51.7408 1.75935C51.9915 1.77906 52.2101 1.62203 52.3193 1.40619L52.3897 1.27533L53.3024 1.29504C53.309 1.36709 53.3024 1.44529 53.2897 1.51734L52.7309 4.89384ZM45.6241 6.47708C45.5467 6.49711 45.4632 6.45737 45.3794 6.46416C44.8914 6.44445 44.4221 6.60794 44.1654 7.00698C43.8249 7.49811 43.7735 8.13884 43.4907 8.6626C42.9894 9.57861 42.0961 10.2917 40.9912 10.3046C40.4384 10.357 39.9437 10.2197 39.468 10.0691C39.3268 10.2781 39.2948 10.6384 39.4296 10.8675C39.6479 11.188 40.0785 11.1354 40.4384 11.1224C41.3186 11.0636 42.2506 10.9263 43.1306 11.0898C43.5609 11.2142 44.0689 11.5018 44.1203 12.012C44.1587 12.7386 43.7284 13.3076 43.3362 13.8243C42.4432 14.845 41.2929 15.6625 39.924 15.8722C38.4592 16.1407 36.885 15.8983 35.7414 15.0547C35.4329 14.8124 35.2079 14.4789 35.272 14.0469C35.465 13.0133 36.3773 12.5486 37.1674 12.0711V12.0643L36.7308 12.0446L33.4538 12.0313L33.4411 12.0181L33.5759 11.2268C33.9034 11.1677 34.2506 11.0701 34.4241 10.7425L34.4946 10.5069L34.9509 7.73947C34.9703 7.49746 34.9379 7.25545 34.79 7.09842C34.6295 6.92847 34.3727 6.88905 34.1348 6.94139C33.5179 7.17047 33.0876 7.75272 32.9911 8.40702L32.6633 10.5072C32.67 10.6772 32.702 10.841 32.8112 10.9583C32.9207 11.0701 33.0746 11.1221 33.2224 11.1677L33.2418 11.2068L33.1069 12.0181H29.5539C29.5732 11.7435 29.6373 11.4821 29.676 11.2139C29.9781 11.1741 30.3056 11.083 30.4471 10.8016L30.5242 10.5596L30.9228 8.16501C30.9291 8.00119 30.865 7.85094 30.7302 7.77243C30.5823 7.71362 30.3894 7.71362 30.2609 7.80506L30.2031 7.7986L29.7665 7.04608L29.8115 6.99373L33.5639 4.63826H33.5769L33.5705 4.80175C33.4868 5.35137 33.3776 5.88773 33.3005 6.43734C33.442 6.35236 33.5252 6.2215 33.654 6.10389C34.3286 5.4693 34.9903 4.79529 35.9866 4.80822C36.4687 4.86056 36.912 5.10289 37.1369 5.54749C37.2588 5.82892 37.2718 6.16916 37.2334 6.48322L36.7451 9.71497L36.6422 10.4743C36.6422 10.6701 36.7644 10.8407 36.9186 10.9518C37.0535 11.0307 37.2207 11.0766 37.3943 11.0698C37.5161 10.6704 37.6704 10.2778 38.0175 10.0229C38.2101 9.88525 38.4415 9.78088 38.6728 9.70236C38.5573 9.52562 38.3901 9.33564 38.2615 9.14629C37.6961 8.40669 37.7795 7.17015 38.2038 6.39178C38.6534 5.50193 39.5273 4.87381 40.5041 4.72324C41.4935 4.57299 42.5343 4.70353 43.2477 5.36429C43.453 5.56688 43.6779 5.80921 43.8769 6.01213C44.1987 5.43634 44.7061 4.92583 45.336 4.74295C45.58 4.6709 45.837 4.6318 46.1004 4.62501L46.1134 4.64505L45.6241 6.47708ZM29.419 3.86667C28.969 4.33777 28.2303 4.57364 27.5941 4.3116C27.337 4.20691 27.2215 3.93227 27.2022 3.6573C27.1828 2.91802 27.806 2.38812 28.3975 2.14611C28.7828 2.00879 29.3806 1.89732 29.6887 2.26372C29.8944 2.46632 29.9588 2.76099 29.9137 3.06213C29.8556 3.38912 29.631 3.63759 29.419 3.86667ZM17.6155 9.80091C17.0243 10.7428 16.1698 11.6391 15.0645 11.9011C14.3769 12.0911 13.5738 12.0055 12.9956 11.6391C11.9932 11.0507 11.402 9.89235 11.4213 8.65613C11.434 8.45322 11.4477 8.30104 11.4797 8.09748C11.4867 8.04352 11.5235 7.77728 11.5489 7.71136C11.6524 7.31975 11.6486 7.36466 11.7158 7.19535C12.0922 6.2509 12.8541 5.57431 13.6699 5.05766C14.2611 4.71096 14.9294 4.54714 15.6491 4.54068C16.6642 4.58656 17.6088 5.25411 17.9623 6.20244C18.3349 7.10521 18.3222 8.37471 17.8916 9.24484L17.6155 9.80091ZM8.32046 1.03041C8.55147 1.04689 8.78217 1.06757 9.01159 1.09277C9.57072 1.17129 10.1295 1.26273 10.6245 1.49182C10.6439 1.49828 10.676 1.51152 10.7017 1.51152C11.5499 1.84497 12.2115 2.57133 12.5263 3.435C12.8347 4.56685 12.4749 5.74459 11.6911 6.51682C11.2221 6.98792 10.6115 7.30198 9.96896 7.47194C9.96261 7.65514 10.014 7.84481 10.0397 8.02833C10.3161 9.55277 11.0679 10.9528 12.1347 12.0259C13.4903 13.3803 15.3733 14.4007 17.4486 13.9425C17.8982 13.7994 18.3479 13.4327 18.3996 12.9092C18.3996 12.6278 18.3419 12.3532 18.1169 12.1829C17.9884 12.085 17.8468 12.0129 17.6863 11.98L17.6799 11.967C17.4873 11.9409 17.2817 11.9409 17.0761 11.9344L17.063 11.9015L17.2109 11.064C17.3845 11.0249 17.6092 11.064 17.77 10.9787C17.9049 10.9066 18.0207 10.8087 18.0785 10.6581L18.2454 9.78153L19.1126 4.79594C19.1193 4.68479 19.1063 4.57978 19.0419 4.4948C18.9521 4.38365 18.8042 4.37687 18.6693 4.39011C18.5792 4.40982 18.4897 4.43599 18.406 4.46217L17.9563 3.70964L17.9627 3.68347L20.1344 2.2899L21.6509 1.30215L21.7794 1.24302L21.7924 1.25627L21.754 1.55062L20.8157 6.96821L20.2502 10.4093C20.2372 10.6646 20.3721 10.8804 20.5777 10.998C20.6869 11.0575 20.8157 11.0833 20.9439 11.1027L20.9569 11.1418L20.8284 11.9273C20.2115 11.9535 19.6588 11.9205 19.0616 11.9599C19.5306 12.1955 20.096 12.549 20.2182 13.1183C20.3531 13.7855 20.0383 14.3745 19.5756 14.76C17.9627 16.0492 15.3476 15.6373 13.5614 14.9956C11.9227 14.3413 10.5351 13.2811 9.37842 11.8682C8.41471 10.6643 7.77847 9.27069 7.29646 7.81185C7.04577 7.79214 6.77605 7.74658 6.52536 7.79214L6.4419 8.18472L5.9986 10.7428C5.9986 11.0966 6.25595 11.3447 6.55138 11.463C6.69291 11.5153 6.84713 11.535 7.00769 11.548C6.97533 11.9079 6.89219 12.2414 6.84078 12.5884L6.79636 12.6039H1.60367C1.55639 12.599 1.48816 12.6152 1.50022 12.569C1.55797 12.2023 1.60303 11.8229 1.68649 11.4766C2.29702 11.5354 2.99736 11.4766 3.3188 10.9137L3.38957 10.6584L4.8867 2.31672C4.89305 2.30347 4.88004 2.29054 4.86734 2.29054C4.154 2.25791 3.52443 2.48667 2.98466 2.87925C3.09382 3.02982 3.22868 3.14743 3.29945 3.32417C3.44097 3.60528 3.38957 4.00464 3.2033 4.25311C2.93326 4.65215 2.39349 4.83568 1.87308 4.72421C1.44913 4.65215 1.05057 4.31192 0.947762 3.87378C0.806552 3.12772 1.18575 2.45371 1.75757 2.055C2.26529 1.67566 2.88851 1.53802 3.49238 1.37453C5.01807 1.01846 6.68244 0.914417 8.32046 1.03041ZM67.7406 10.4487C67.6892 10.6187 67.5991 10.7954 67.4318 10.8607C67.1491 10.9783 66.7248 10.9916 66.4618 10.8016C66.3647 10.6904 66.3587 10.5334 66.378 10.3896L66.7696 8.12591C66.8664 7.78568 67.0657 7.47808 67.3608 7.26224C67.5086 7.18372 67.7209 7.13784 67.8818 7.20989C67.978 7.24931 68.0741 7.32104 68.1192 7.41927C68.1769 7.56984 68.1515 7.77275 68.1385 7.93625L67.7406 10.4487ZM56.6311 9.55244C56.6438 9.70301 56.6892 9.86004 56.6955 10.0038C56.3033 10.2394 55.9241 10.6316 55.397 10.5269C55.2622 10.4617 55.127 10.3373 55.0952 10.1673C55.0569 9.99736 55.0695 9.79445 55.0822 9.61771L55.5643 6.83702L55.5966 6.8241C56.0723 6.88937 56.7019 6.65414 57.0681 7.03348C56.7209 7.78568 56.528 8.64289 56.6311 9.55244ZM34.6942 7.80539C34.5143 8.70848 34.4048 9.64388 34.2185 10.5531C34.1094 10.7757 33.891 10.8937 33.6467 10.9066C33.3897 10.9134 33.0812 10.9195 32.9787 10.6517C32.927 10.5269 32.927 10.3634 32.9464 10.2261L33.2999 8.17179C33.4284 7.76629 33.7495 7.33461 34.1671 7.22314C34.302 7.18405 34.4886 7.1708 34.5847 7.29519C34.7329 7.40634 34.7135 7.62864 34.6942 7.80539ZM30.312 10.2853C30.2926 10.4878 30.2348 10.6969 30.0549 10.8155C29.7722 10.9851 29.3419 10.9654 29.0271 10.8675C28.8919 10.789 28.8021 10.6517 28.8148 10.4814L28.8278 10.2591L29.3546 7.1317H29.3739C29.631 7.48518 29.8303 7.8448 30.1 8.17858C30.2415 8.09974 30.3894 7.9692 30.5693 8.04772C30.6207 8.08035 30.6397 8.14594 30.6464 8.20475L30.312 10.2853ZM26.1226 10.5402C25.9491 10.8937 25.5188 10.9066 25.1586 10.874C25.0044 10.841 24.8181 10.769 24.7667 10.5925C24.7023 10.357 24.7797 10.0953 24.8115 9.85326C24.953 8.93078 25.1136 8.01476 25.2678 7.09874C25.3065 7.07257 25.3065 7.1317 25.3255 7.14463L25.9681 8.24385C26.103 8.19797 26.2378 8.07389 26.3984 8.1327C26.5206 8.19829 26.4885 8.37471 26.4755 8.49264L26.1226 10.5402ZM22.0231 10.3896C21.9717 10.6775 21.676 10.7757 21.4256 10.8216C21.1556 10.874 20.8154 10.8675 20.6352 10.6707C20.5133 10.5205 20.5133 10.2914 20.545 10.0953L20.8598 8.21735L21.6055 3.8796L21.6249 3.86635C21.8496 4.20012 22.0555 4.57332 22.2865 4.91969L22.3252 4.95911C22.4728 4.88706 22.6273 4.71031 22.8136 4.81533C22.897 4.88738 22.8907 5.01145 22.8713 5.10968L22.0231 10.3896ZM17.8275 10.5731C17.731 10.7366 17.519 10.7428 17.3391 10.769C17.3198 10.7625 17.2941 10.7625 17.2684 10.7557L17.2747 10.7101C17.5831 10.3567 17.8081 9.9447 18.0268 9.53887C17.9944 9.89235 17.9493 10.2526 17.8275 10.5731ZM52.6795 8.96987L52.6661 8.99637C52.6024 8.92432 52.5957 8.80638 52.5446 8.72108C51.8116 7.10521 50.257 6.05187 49.325 4.56653C49.1067 4.21983 49.062 3.64437 49.3123 3.29735C49.5437 2.9639 49.9546 2.77424 50.3985 2.83951C50.8098 2.89831 51.1309 3.15357 51.3623 3.4741C51.6513 3.96458 51.4521 4.61887 51.375 5.14877C51.8506 5.19466 52.3583 5.17527 52.827 5.20112L52.8207 5.24054L52.1971 5.64636C52.114 6.01923 52.0623 6.40535 51.9979 6.78468L52.0429 6.80439L53.0136 6.8241L53.033 6.84381L52.8153 8.15176L52.6795 8.96987ZM14.7237 13.4844C13.4836 13.0068 12.4749 12.0646 11.62 11.0184C10.926 10.0235 10.4313 8.8849 10.2774 7.63543C10.7337 7.49811 11.1446 7.2561 11.5175 6.97467C11.4851 7.15755 11.4017 7.34108 11.3569 7.53074C11.177 8.24417 11.1062 9.1534 11.3569 9.85358C11.6974 10.9525 12.5907 12.0388 13.7921 12.1826C14.9811 12.3335 16.099 11.9208 16.8701 11.1228C16.8831 11.2736 16.8444 11.4433 16.8187 11.5939C16.78 11.7835 16.761 11.9735 16.7286 12.1632C17.2427 12.1961 17.9046 12.1241 18.1099 12.6801C18.2 13.0595 17.9687 13.4 17.6796 13.5765C17.3096 13.7619 16.8863 13.8324 16.4544 13.8288C15.8515 13.8223 15.2334 13.6711 14.7237 13.4844ZM45.8231 10.6122C45.4699 10.2197 45.2512 9.74211 45.0716 9.2513C44.5703 9.38216 44.0752 9.54566 43.5872 9.7224L44.1396 11.443H44.1266C43.5037 10.6449 42.4175 10.7101 41.4732 10.7822C41.0105 10.8216 40.5672 10.8478 40.1046 10.8869C39.9119 10.8672 39.6676 10.8349 39.6099 10.6119C39.5968 10.5266 39.6032 10.4223 39.6419 10.3502C40.1109 10.4875 40.625 10.5922 41.1584 10.546C42.4499 10.4416 43.5294 9.49945 43.915 8.28908C44.14 7.70038 44.2748 6.84316 45.0396 6.75172C45.2773 6.6926 45.547 6.73201 45.7847 6.76497C45.9646 6.12392 46.1512 5.48901 46.3184 4.8415H46.3441C46.4923 5.66575 46.9248 6.45672 47.4106 7.02669C48.0192 7.74044 48.6634 8.40055 49.1775 9.13983C49.5307 9.64388 49.6852 10.4226 49.3638 10.9916C49.2229 11.2536 48.9979 11.4426 48.7278 11.5606C48.4683 11.6624 48.2068 11.7069 47.9504 11.7053C47.133 11.7005 46.3606 11.2245 45.8231 10.6122Z" fill="white"/>
<path d="M77.1347 7.52416L74.7894 8.65634L73.4595 9.30385C73.4208 9.48059 73.5493 9.61113 73.5877 9.76202C73.7803 10.1675 74.1278 10.5733 74.6225 10.5666C74.8922 10.5733 75.1362 10.4751 75.2968 10.2525V10.2131C75.0654 10.0955 74.8982 9.85992 74.8538 9.61113C74.7703 9.12032 75.0531 8.72839 75.3936 8.4993C75.6826 8.28993 76.1132 8.22434 76.4601 8.34873C76.9738 8.55811 77.2826 9.09447 77.2889 9.65733C77.2505 10.4095 76.852 11.0373 76.3439 11.5285C75.4383 12.3333 74.089 12.66 72.8873 12.2416C71.6406 11.7963 70.8051 10.501 70.7216 9.14003C70.6705 8.0476 71.0561 7.10541 71.5314 6.2482C72.2835 5.10342 73.5045 4.37707 74.9239 4.42941C75.8686 4.495 76.7231 5.12959 77.0893 5.99973C77.2759 6.41815 77.3914 6.87632 77.4362 7.36034L77.1347 7.52416ZM77.1795 7.28861C77.0643 6.37259 76.6914 5.46983 75.914 4.98548C75.0785 4.4097 73.8063 4.64557 73.0032 5.12959C72.0268 5.67274 71.4613 6.6999 71.1398 7.73353C70.7609 8.8851 71.0307 10.2199 71.731 11.1097C72.3799 11.9472 73.4338 12.2939 74.5133 12.1372C75.6442 11.9601 76.6143 11.2076 76.9291 10.0628C77.0449 9.63762 76.9805 9.13389 76.6914 8.83275C76.4601 8.57103 76.0425 8.50577 75.708 8.62984C75.3936 8.79333 75.1045 9.09447 75.1302 9.49384C75.1429 9.71614 75.2841 9.91259 75.4704 10.0237C75.5411 10.0761 75.6633 10.0499 75.715 10.1349C75.477 10.5798 75.008 10.8942 74.4813 10.8157C73.8644 10.7301 73.4461 10.2066 73.2602 9.64408C73.2275 9.51969 73.1701 9.38915 73.1701 9.2515L75.2457 8.24405L77.1795 7.28861Z" fill="white"/>
</g>
<defs>
<clipPath id="clip0_10435_4345">
<rect width="79" height="18" fill="white"/>
</clipPath>
</defs>
</svg>
