<svg width="50" height="50" viewBox="0 0 50 50" fill="none" xmlns="http://www.w3.org/2000/svg">
<circle cx="25" cy="25" r="25" fill="#1B1F23"/>
<path d="M33.5777 14.4297H29.8042V13.5156C29.8042 13.2306 29.5736 13 29.2886 13H20.7114C20.4264 13 20.1958 13.2306 20.1958 13.5156V14.4297H16.4224C16.1378 14.4297 15.9067 14.6603 15.9067 14.9453V36.4844C15.9067 36.7694 16.1378 37 16.4224 37H33.5777C33.8622 37 34.0933 36.7694 34.0933 36.4844V14.9453C34.0933 14.6603 33.8622 14.4297 33.5777 14.4297ZM21.2271 14.0312H28.773V15.8594H21.2271V14.0312ZM33.062 35.9688H16.938V15.4609H20.1958V16.375C20.1958 16.6595 20.4264 16.8906 20.7114 16.8906H29.2886C29.5736 16.8906 29.8042 16.6595 29.8042 16.375V15.4609H33.062V35.9688Z" fill="white"/>
<path d="M20.7112 22.6566C19.6386 22.6566 18.766 21.7839 18.766 20.7113C18.766 19.6387 19.6386 18.7661 20.7112 18.7661C21.7838 18.7661 22.6564 19.6387 22.6564 20.7113C22.6564 21.7839 21.7838 22.6566 20.7112 22.6566ZM20.7112 19.7974C20.2073 19.7974 19.7972 20.2074 19.7972 20.7113C19.7972 21.2153 20.2073 21.6253 20.7112 21.6253C21.2152 21.6253 21.6252 21.2153 21.6252 20.7113C21.6252 20.2074 21.2152 19.7974 20.7112 19.7974Z" fill="white"/>
<path d="M20.7112 34.0931C19.6386 34.0931 18.766 33.2204 18.766 32.1479C18.766 31.0753 19.6386 30.2026 20.7112 30.2026C21.7838 30.2026 22.6564 31.0753 22.6564 32.1479C22.6564 33.2205 21.7838 34.0931 20.7112 34.0931ZM20.7112 31.2339C20.2073 31.2339 19.7972 31.6439 19.7972 32.1479C19.7972 32.6519 20.2073 33.0619 20.7112 33.0619C21.2152 33.0619 21.6252 32.6519 21.6252 32.1479C21.6252 31.6439 21.2152 31.2339 20.7112 31.2339Z" fill="white"/>
<path d="M30.7184 21.2271H25C24.7152 21.2271 24.4844 20.9962 24.4844 20.7114C24.4844 20.4267 24.7152 20.1958 25 20.1958H30.7184C31.0031 20.1958 31.234 20.4267 31.234 20.7114C31.234 20.9962 31.0031 21.2271 30.7184 21.2271Z" fill="#FFED92"/>
<path d="M30.7184 26.9453H25C24.7152 26.9453 24.4844 26.7145 24.4844 26.4297C24.4844 26.1449 24.7152 25.9141 25 25.9141H30.7184C31.0031 25.9141 31.234 26.1449 31.234 26.4297C31.234 26.7145 31.0031 26.9453 30.7184 26.9453Z" fill="white"/>
<path d="M30.7184 32.6636H25C24.7152 32.6636 24.4844 32.4327 24.4844 32.1479C24.4844 31.8632 24.7152 31.6323 25 31.6323H30.7184C31.0031 31.6323 31.234 31.8632 31.234 32.1479C31.234 32.4327 31.0031 32.6636 30.7184 32.6636Z" fill="#FFED92"/>
<path d="M20.7111 28.3749C20.5752 28.3749 20.4438 28.3211 20.3466 28.2239L18.917 26.7943C18.7157 26.5929 18.7156 26.2664 18.917 26.0651C19.1184 25.8637 19.4449 25.8637 19.6462 26.0651L20.6187 27.0375L21.8472 25.0831C21.9988 24.8419 22.317 24.7694 22.5582 24.9209C22.7992 25.0725 22.8718 25.3908 22.7203 25.6319L21.1478 28.1336C21.0643 28.2665 20.9248 28.3541 20.7689 28.3716C20.7496 28.3738 20.7304 28.3749 20.7111 28.3749Z" fill="#FFED92"/>
</svg>
